<mxfile host="app.diagrams.net" modified="2024-03-18T11:01:50.305Z" agent="Mozilla/5.0 (Windows NT 10.0; Win64; x64) AppleWebKit/537.36 (KHTML, like Gecko) Chrome/122.0.0.0 Safari/537.36" version="24.0.7" etag="dcYO6gGyreGT6qXZJ3Go" type="github">
  <diagram name="PÃ¡gina-1" id="7e_I2fWbC15nRo2pUavr">
    <mxGraphModel>
      <root>
        <mxCell id="0" />
        <mxCell id="1" parent="0" />
      </root>
    </mxGraphModel>
  </diagram>
</mxfile>
